<svg width="22" height="21" viewBox="0 0 22 21" fill="none" xmlns="http://www.w3.org/2000/svg">
<path d="M15 6.94368C16.5913 6.94368 18.1174 7.57582 19.2426 8.70104C20.3679 9.82626 21 11.3524 21 12.9437V19.9437H17V12.9437C17 12.4132 16.7893 11.9045 16.4142 11.5295C16.0391 11.1544 15.5304 10.9437 15 10.9437C14.4696 10.9437 13.9609 11.1544 13.5858 11.5295C13.2107 11.9045 13 12.4132 13 12.9437V19.9437H9V12.9437C9 11.3524 9.63214 9.82626 10.7574 8.70104C11.8826 7.57582 13.4087 6.94368 15 6.94368V6.94368Z" stroke="white" stroke-width="1.5" stroke-linecap="round" stroke-linejoin="round"/>
<path d="M5 7.94368H1V19.9437H5V7.94368Z" stroke="white" stroke-width="1.5" stroke-linecap="round" stroke-linejoin="round"/>
<path d="M3 4.94368C4.10457 4.94368 5 4.04825 5 2.94368C5 1.83911 4.10457 0.94368 3 0.94368C1.89543 0.94368 1 1.83911 1 2.94368C1 4.04825 1.89543 4.94368 3 4.94368Z" stroke="white" stroke-width="1.5" stroke-linecap="round" stroke-linejoin="round"/>
</svg>
